{
    "asset": {
        "generator": "https://3dviewer.net",
        "version": "2.0"
    },
    "scene": 0,
    "scenes": [
        {
            "nodes": [
                0
            ]
        }
    ],
    "nodes": [
        {
            "mesh": 0
        }
    ],
    "materials": [
        {
            "name": "Material",
            "pbrMetallicRoughness": {
                "baseColorFactor": [
                    0.5775804404214573,
                    0.5775804404214573,
                    0.5775804404214573,
                    1
                ]
            },
            "emissiveFactor": [
                0,
                0,
                0
            ],
            "doubleSided": true,
            "alphaMode": "OPAQUE"
        }
    ],
    "meshes": [
        {
            "name": "Mesh",
            "primitives": [
                {
                    "attributes": {
                        "POSITION": 1,
                        "NORMAL": 2
                    },
                    "mode": 4,
                    "material": 0,
                    "indices": 0
                }
            ]
        }
    ],
    "buffers": [
        {
            "uri": "model.bin",
            "byteLength": 35325108
        }
    ],
    "bufferViews": [
        {
            "buffer": 0,
            "byteOffset": 0,
            "byteLength": 5134716,
            "target": 34963
        },
        {
            "buffer": 0,
            "byteOffset": 5134716,
            "byteLength": 15095196,
            "target": 34962
        },
        {
            "buffer": 0,
            "byteOffset": 20229912,
            "byteLength": 15095196,
            "target": 34962
        }
    ],
    "accessors": [
        {
            "bufferView": 0,
            "byteOffset": 0,
            "componentType": 5125,
            "count": 1283679,
            "type": "SCALAR"
        },
        {
            "bufferView": 1,
            "byteOffset": 0,
            "componentType": 5126,
            "count": 1257933,
            "min": [
                -0.875,
                -0.3149999976158142,
                -1.0602506399154663
            ],
            "max": [
                -0.4050000011920929,
                2.0845086574554443,
                0.22948233783245087
            ],
            "type": "VEC3"
        },
        {
            "bufferView": 2,
            "byteOffset": 0,
            "componentType": 5126,
            "count": 1257933,
            "type": "VEC3"
        }
    ]
}