{
    "asset": {
        "generator": "https://3dviewer.net",
        "version": "2.0"
    },
    "scene": 0,
    "scenes": [
        {
            "nodes": [
                0
            ]
        }
    ],
    "nodes": [
        {
            "mesh": 0
        }
    ],
    "materials": [
        {
            "name": "Material",
            "pbrMetallicRoughness": {
                "baseColorFactor": [
                    0.5775804404214573,
                    0.5775804404214573,
                    0.5775804404214573,
                    1
                ]
            },
            "emissiveFactor": [
                0,
                0,
                0
            ],
            "doubleSided": true,
            "alphaMode": "OPAQUE"
        }
    ],
    "meshes": [
        {
            "name": "Mesh",
            "primitives": [
                {
                    "attributes": {
                        "POSITION": 1,
                        "COLOR_0": 2,
                        "NORMAL": 3
                    },
                    "mode": 4,
                    "material": 0,
                    "indices": 0
                }
            ]
        }
    ],
    "buffers": [
        {
            "uri": "model.bin",
            "byteLength": 12555336
        }
    ],
    "bufferViews": [
        {
            "buffer": 0,
            "byteOffset": 0,
            "byteLength": 5018844,
            "target": 34963
        },
        {
            "buffer": 0,
            "byteOffset": 5018844,
            "byteLength": 2512164,
            "target": 34962
        },
        {
            "buffer": 0,
            "byteOffset": 7531008,
            "byteLength": 2512164,
            "target": 34962
        },
        {
            "buffer": 0,
            "byteOffset": 10043172,
            "byteLength": 2512164,
            "target": 34962
        }
    ],
    "accessors": [
        {
            "bufferView": 0,
            "byteOffset": 0,
            "componentType": 5125,
            "count": 1254711,
            "type": "SCALAR"
        },
        {
            "bufferView": 1,
            "byteOffset": 0,
            "componentType": 5126,
            "count": 209347,
            "min": [
                -1.26629,
                -1.17795,
                -2.27805
            ],
            "max": [
                0.846895,
                -0.560532,
                1.08784
            ],
            "type": "VEC3"
        },
        {
            "bufferView": 2,
            "byteOffset": 0,
            "componentType": 5126,
            "count": 209347,
            "type": "VEC3"
        },
        {
            "bufferView": 3,
            "byteOffset": 0,
            "componentType": 5126,
            "count": 209347,
            "type": "VEC3"
        }
    ]
}